<svg xmlns="http://www.w3.org/2000/svg" width="32" height="32" viewBox="0 0 32 32" fill="none"><circle cx="16" cy="16" r="16" fill="#38bdf8"/><path d="M22.5 21.5c-1.5 0-3-.25-4.5-.75-1.5-.5-2.75-1.25-3.75-2.25-1-.95-1.75-2.2-2.25-3.7-.5-1.5-.75-3-.75-4.5 0-.4.15-.75.45-1.05.3-.3.65-.45 1.05-.45h2c.4 0 .75.15 1.05.45.3.3.45.65.45 1.05 0 .3-.05.6-.15.9-.1.3-.2.6-.3.9-.1.3-.1.6-.1.9 0 .2.05.4.15.6.1.2.25.35.45.45.2.1.4.15.6.15.3 0 .6-.05.9-.15.3-.1.6-.2.9-.3.3-.1.6-.15.9-.15.4 0 .75.15 1.05.45.3.3.45.65.45 1.05v2c0 .4-.15.75-.45 1.05-.3.3-.65.45-1.05.45Z" stroke="#fff" stroke-width="2" stroke-linecap="round" stroke-linejoin="round"/></svg>
